<svg xmlns="http://www.w3.org/2000/svg" xmlns:xlink="http://www.w3.org/1999/xlink" viewBox="0 0 246.76 246.75"><defs><style>.cls-1{fill:url(#linear-gradient);}.cls-2{fill:url(#linear-gradient-2);}.cls-3{fill:url(#linear-gradient-3);}.cls-4{fill:url(#linear-gradient-4);}</style><linearGradient id="linear-gradient" x1="127.78" y1="174.87" x2="88.77" y2="23.78" gradientUnits="userSpaceOnUse"><stop offset="0" stop-color="#1a88c7" stop-opacity="0.9"/><stop offset="1" stop-color="#094064" stop-opacity="0.9"/></linearGradient><linearGradient id="linear-gradient-2" x1="121.87" y1="238.52" x2="122.15" y2="78.01" gradientUnits="userSpaceOnUse"><stop offset="0" stop-color="#7bb687"/><stop offset="0.34" stop-color="#4e9969"/><stop offset="0.78" stop-color="#197645"/><stop offset="1" stop-color="#046937"/></linearGradient><linearGradient id="linear-gradient-3" x1="123.38" y1="246.75" x2="123.38" gradientUnits="userSpaceOnUse"><stop offset="0" stop-color="#68ba8c"/><stop offset="0.16" stop-color="#62b28a"/><stop offset="0.43" stop-color="#539b85"/><stop offset="0.75" stop-color="#3a757d"/><stop offset="1" stop-color="#245475"/></linearGradient><linearGradient id="linear-gradient-4" x1="121.87" y1="238.52" x2="122.15" y2="78.01" gradientUnits="userSpaceOnUse"><stop offset="0.25" stop-color="#2469b3" stop-opacity="0"/><stop offset="0.44" stop-color="#2469b3" stop-opacity="0.03"/><stop offset="0.66" stop-color="#2469b3" stop-opacity="0.1"/><stop offset="0.9" stop-color="#2469b3" stop-opacity="0.23"/><stop offset="1" stop-color="#2469b3" stop-opacity="0.3"/></linearGradient></defs><title>iconAsset 1</title><g id="Layer_2" data-name="Layer 2"><g id="Layer_1-2" data-name="Layer 1"><path class="cls-1" d="M100.93,26.65a17.51,17.51,0,0,1,2.27,20.06C99,54.63,91.89,60.55,85,66.09c-3.94,3.18-8,6.22-11.91,9.46C61.63,85.06,50,94.85,41.93,107.62a71.09,71.09,0,0,0-10.5,44.89c5.19,48.68,62,72.18,105,60.78.62-.16,2-1,2.63-.91-9-1.38-14.29-8.44-15.85-17-2.26-12.45,2-25.44,9.44-35.43,5.81-7.8,13.56-14.2,20.69-20.52,10.68-9.46,21.82-18.46,31.46-29,6.43-7,12.46-15.93,11-25.35-.59-3.84-2.39-7.37-4.32-10.73q-1.07-1.86-2.19-3.66a122.88,122.88,0,0,0-53.1-46.05l-1.57-.71L133,23.2l-1.61-.69-1.63-.67-1.65-.65-1.66-.64-1.68-.62-1.68-.6-1.71-.58-1.71-.55L118,17.67q-.87-.27-1.74-.51t-1.74-.48c-.58-.16-1.17-.31-1.75-.45L111,15.8l-1.76-.39-1.77-.36-1.77-.32-1.77-.29c-.59-.09-1.18-.18-1.78-.25L100.35,14l-1.78-.18-1.78-.13q-.89-.06-1.77-.09c-.59,0-1.18,0-1.77-.05H91.48l-1.76.05c-.59,0-1.18,0-1.76.09s-1.17.08-1.75.14-1.17.12-1.75.19-1.16.15-1.73.24-1.16.19-1.73.3l-1.72.35-1.7.41c-.57.15-1.13.3-1.69.47s-1.12.34-1.68.52-1.11.38-1.67.59-1.1.42-1.65.65-1.09.46-1.63.71-1.08.51-1.62.78-1.07.55-1.6.84l-.42.24c-.62.35-1.24.72-1.85,1.09l-1.86,1.15A55.91,55.91,0,0,1,76.12,17.8c8.88-1.38,18.46,1.65,24.47,8.45Z"/><path class="cls-2" d="M35.29,107.63C22.51,119,21.22,140.1,23.84,155.86c2.89,17.44,12.84,33.48,26.39,44.69,17.94,14.83,41.5,21.73,64.76,22.62,20.32.77,42.86-2.75,59.64-15a75.64,75.64,0,0,0,11.18-10.36c7.53-8.35,14.29-18.21,16.44-29.43-.31,1.59-3.23,4.24-4.29,5.59q-2.39,3-4.86,6c-9.39,11.18-19.66,23.83-33.94,28.79-7.31,2.54-16,2.17-22.09-2.66-10.61-8.48-8.34-23.26-3.06-34.09,6.68-13.73,19.12-23.79,30.23-33.81,9.06-8.17,18.23-16.88,26-26.53,4.86-6,18.08-21.17,10.83-29.24,17.11,19,28.69,43.65,30.29,69.47q.19,3.15.17,6.31a54.56,54.56,0,0,1-4.41,22.24,82.35,82.35,0,0,1-14,20.72,122.88,122.88,0,0,1-57.26,36.1A118.37,118.37,0,0,1,24.4,188.49c-6.12-9.3-11-19.75-11.74-30.85-1.27-18.63,5.28-40.55,22.12-50.27"/><path class="cls-3" d="M123.52,5a118.37,118.37,0,0,1,10.65,236.25c-3.66.33-7.32.5-10.93.5A118.37,118.37,0,0,1,112.58,5.5q5.51-.5,10.94-.5m0-5h0c-3.78,0-7.62.18-11.39.52a123.37,123.37,0,0,0,11.11,246.23c3.78,0,7.61-.18,11.39-.52A123.37,123.37,0,0,0,123.53,0Z"/><path class="cls-4" d="M35.29,107.63C22.51,119,21.22,140.1,23.84,155.86c2.89,17.44,12.84,33.48,26.39,44.69,17.94,14.83,41.5,21.73,64.76,22.62,20.32.77,42.86-2.75,59.64-15a75.64,75.64,0,0,0,11.18-10.36c7.53-8.35,14.29-18.21,16.44-29.43-.31,1.59-3.23,4.24-4.29,5.59q-2.39,3-4.86,6c-9.39,11.18-19.66,23.83-33.94,28.79-7.31,2.54-16,2.17-22.09-2.66-10.61-8.48-8.34-23.26-3.06-34.09,6.68-13.73,19.12-23.79,30.23-33.81,9.06-8.17,18.23-16.88,26-26.53,4.86-6,18.08-21.17,10.83-29.24,17.11,19,28.69,43.65,30.29,69.47q.19,3.15.17,6.31a54.56,54.56,0,0,1-4.41,22.24,82.35,82.35,0,0,1-14,20.72,122.88,122.88,0,0,1-57.26,36.1A118.37,118.37,0,0,1,24.4,188.49c-6.12-9.3-11-19.75-11.74-30.85-1.27-18.63,5.28-40.55,22.12-50.27"/></g></g></svg>